<svg xmlns="http://www.w3.org/2000/svg" viewBox="0 0 32 32">
  <path fill="#25D366" d="M16 0a16 16 0 0 0-13.7 24.2L0 32l8-2.1A16 16 0 1 0 16 0Z"/>
  <path fill="#FFF" d="M23.8 19.3c-.3-.2-2-1-2.3-1.1-.3-.1-.5-.2-.8.2-.2.3-.9 1.1-1.1 1.3-.2.2-.4.2-.7 0-.3-.1-1.4-.5-2.6-1.6-1-.9-1.6-2-1.8-2.3-.2-.3 0-.5.1-.7.2-.2.3-.4.5-.6.2-.2.2-.3.3-.6.1-.2 0-.4 0-.6-.1-.2-.8-1.9-1-2.6-.3-.7-.5-.6-.7-.6h-.6c-.2 0-.6.1-.9.4-.3.3-1.2 1.1-1.2 2.8 0 1.7 1.2 3.3 1.4 3.5.2.3 2.5 3.8 6 5.3 2.5 1 3.5 1.1 4.4.9.6-.1 1.9-.8 2.2-1.6.3-.8.3-1.5.2-1.6-.1-.1-.3-.2-.6-.3Z"/>
</svg>
